<svg xmlns="http://www.w3.org/2000/svg" width="24" height="24" viewBox="0 0 24 24">
    <g fill="none" fill-rule="evenodd">
        <path fill="#FFF" d="M24 5.273a9.94 9.94 0 0 1-2.827.763 4.862 4.862 0 0 0 2.164-2.681 9.886 9.886 0 0 1-3.128 1.175A4.948 4.948 0 0 0 16.616 3c-2.718 0-4.922 2.17-4.922 4.847 0 .38.042.749.126 1.104A14.049 14.049 0 0 1 1.67 3.885a4.787 4.787 0 0 0-.666 2.44c0 1.68.87 3.164 2.19 4.033a4.982 4.982 0 0 1-2.23-.604v.06c0 2.348 1.697 4.308 3.95 4.752-.413.113-.847.17-1.298.17a4.95 4.95 0 0 1-.925-.086c.625 1.925 2.444 3.329 4.599 3.365a9.98 9.98 0 0 1-6.115 2.076c-.397 0-.79-.022-1.175-.067A14.117 14.117 0 0 0 7.548 22.2c9.058 0 14.01-7.385 14.01-13.79 0-.211-.005-.422-.015-.627A9.91 9.91 0 0 0 24 5.273"/>
        <path d="M0 0h24v24H0z"/>
    </g>
</svg>
